<?xml version="1.0" encoding="UTF-8" standalone="no"?>
<svg xmlns="http://www.w3.org/2000/svg" width="512" height="512" viewBox="0 0 512 512">
  <defs>
    <linearGradient id="keyGradient" x1="0%" y1="0%" x2="100%" y2="100%">
      <stop offset="0%" style="stop-color:#10B981; stop-opacity:1" />
      <stop offset="100%" style="stop-color:#047857; stop-opacity:1" />
    </linearGradient>
  </defs>
  
  <!-- Background -->
  <rect width="512" height="512" rx="64" fill="#0F172A" />
  
  <!-- Key symbol -->
  <g transform="translate(256, 256) scale(0.8) translate(-256, -256)">
    <!-- Key body -->
    <path d="M348.7 337.1c-5.8 11.5-19.8 16-31.3 10.2-11.5-5.8-16-19.8-10.2-31.3 5.8-11.5 19.8-16 31.3-10.2 11.5 5.8 16 19.8 10.2 31.3z" fill="url(#keyGradient)" />
    <path d="M398.7 117.1c-36.9-36.9-96.8-36.9-133.7 0-30.5 30.5-36.2 76.9-17.1 114.9l-116 115.8c-9.4 9.4-9.4 24.6 0 33.9 9.4 9.4 24.6 9.4 33.9 0l22.6-22.6 28.7 28.7c4.7 4.7 10.8 7 16.8 7s12.1-2.3 16.8-7l17.3-17.3c9.4-9.4 9.4-24.6 0-33.9l-28.7-28.7 41.2-41.2c37.9 19.1 84.4 13.4 114.9-17.1 36.8-36.9 36.8-96.8 0-133.5z" fill="url(#keyGradient)" />
  </g>
  
  <!-- R symbol -->
  <text x="50%" y="60%" font-family="Arial, sans-serif" font-size="80px" font-weight="bold" fill="#FFFFFF" text-anchor="middle">R</text>
  
  <!-- Circuit pattern overlay -->
  <g fill="none" stroke="#10B981" stroke-width="2" opacity="0.3">
    <path d="M50,50 L120,50 L120,120 L180,120 L180,200 L250,200" />
    <path d="M280,200 L350,200 L350,150 L420,150 L420,100" />
    <path d="M50,250 L100,250 L100,350 L150,350 L150,400 L220,400" />
    <path d="M260,400 L350,400 L350,350 L450,350" />
    <circle cx="120" cy="50" r="6" fill="#10B981" />
    <circle cx="120" cy="120" r="6" fill="#10B981" />
    <circle cx="180" cy="120" r="6" fill="#10B981" />
    <circle cx="180" cy="200" r="6" fill="#10B981" />
    <circle cx="250" cy="200" r="6" fill="#10B981" />
    <circle cx="280" cy="200" r="6" fill="#10B981" />
    <circle cx="350" cy="200" r="6" fill="#10B981" />
    <circle cx="350" cy="150" r="6" fill="#10B981" />
    <circle cx="420" cy="150" r="6" fill="#10B981" />
    <circle cx="100" cy="250" r="6" fill="#10B981" />
    <circle cx="100" cy="350" r="6" fill="#10B981" />
    <circle cx="150" cy="350" r="6" fill="#10B981" />
    <circle cx="150" cy="400" r="6" fill="#10B981" />
    <circle cx="220" cy="400" r="6" fill="#10B981" />
    <circle cx="260" cy="400" r="6" fill="#10B981" />
    <circle cx="350" cy="400" r="6" fill="#10B981" />
    <circle cx="350" cy="350" r="6" fill="#10B981" />
  </g>
</svg>
